<svg width="292" height="285" viewBox="0 0 292 285" fill="none" xmlns="http://www.w3.org/2000/svg">
<path d="M267.839 232.127C266.774 233.871 265.669 235.581 264.517 237.251C249.186 259.474 224.24 274.312 200.204 280.7C189.675 283.503 178.905 284.833 168.184 284.965C97.8679 285.799 73.6363 224.68 51.4093 208.505C29.1823 192.33 -4.85571 164.804 0.959487 108.996C5.37369 66.5631 29.6095 26.5113 72.4207 9.11314C77.1361 7.19075 82.0813 5.54433 87.2485 4.20573C96.8611 1.71513 107.248 0.264328 118.403 0.0375214C150.444 -0.617081 176.22 8.11113 201.109 29.0469C206.895 33.9135 212.633 39.3819 220.286 40.1643C225.848 40.7325 231.186 38.7807 225.507 33.0081C218.833 26.2227 227.071 13.4343 244.217 22.9149C272.852 38.7495 283.946 71.5917 288.71 104.818C294.558 145.602 289.895 196.01 267.839 232.127Z" fill="white"/>
</svg>
