<svg width="24" height="24" viewBox="0 0 24 24" fill="none" xmlns="http://www.w3.org/2000/svg">
<path d="M16.9489 8.46447L13.4133 12L16.9489 15.5355C17.1364 15.7231 17.2417 15.9774 17.2417 16.2426C17.2417 16.5079 17.1364 16.7622 16.9489 16.9497C16.7613 17.1373 16.507 17.2426 16.2417 17.2426C15.9765 17.2426 15.7222 17.1373 15.5346 16.9497L11.9991 13.4142L8.46357 16.9497C8.27603 17.1373 8.02168 17.2426 7.75646 17.2426C7.49125 17.2426 7.23689 17.1373 7.04936 16.9497C6.86182 16.7622 6.75646 16.5079 6.75646 16.2426C6.75646 15.9774 6.86182 15.7231 7.04936 15.5355L10.5849 12L7.04936 8.46447C6.86182 8.27693 6.75646 8.02258 6.75646 7.75736C6.75646 7.49214 6.86182 7.23779 7.04936 7.05025C7.23689 6.86272 7.49125 6.75736 7.75646 6.75736C8.02168 6.75736 8.27603 6.86272 8.46357 7.05025L11.9991 10.5858L15.5346 7.05025C15.7222 6.86272 15.9765 6.75736 16.2417 6.75736C16.507 6.75736 16.7613 6.86272 16.9489 7.05025C17.1364 7.23779 17.2417 7.49214 17.2417 7.75736C17.2417 8.02258 17.1364 8.27693 16.9489 8.46447Z" fill="#0A0A0A"/>
</svg>
