<svg width="24" height="24" viewBox="0 0 24 24" fill="none" xmlns="http://www.w3.org/2000/svg">
<path fill-rule="evenodd" clip-rule="evenodd" d="M12.7064 17.7044C12.5188 17.8919 12.2645 17.9972 11.9994 17.9972C11.7342 17.9972 11.4799 17.8919 11.2924 17.7044L5.63537 12.0474C5.53986 11.9552 5.46367 11.8448 5.41126 11.7228C5.35886 11.6008 5.33127 11.4696 5.33012 11.3368C5.32896 11.204 5.35426 11.0724 5.40454 10.9495C5.45483 10.8266 5.52908 10.7149 5.62297 10.621C5.71686 10.5271 5.82852 10.4529 5.95141 10.4026C6.07431 10.3523 6.20599 10.327 6.33877 10.3282C6.47155 10.3293 6.60277 10.3569 6.72477 10.4093C6.84677 10.4617 6.95712 10.5379 7.04937 10.6334L11.9994 15.5834L16.9494 10.6334C17.138 10.4513 17.3906 10.3505 17.6528 10.3527C17.915 10.355 18.1658 10.4602 18.3512 10.6456C18.5366 10.831 18.6418 11.0818 18.644 11.344C18.6463 11.6062 18.5455 11.8588 18.3634 12.0474L12.7064 17.7044Z" fill="#026074"/>
</svg>
