<svg width="24" height="24" viewBox="0 0 24 24" fill="none" xmlns="http://www.w3.org/2000/svg">
<path d="M20 16H4V17.5H20V16Z" fill="#A8AFAF"/>
<path d="M20 19H4V20.5H20V19Z" fill="#A8AFAF"/>
<path d="M9.78571 12.75V9.625H10.4286C11.1103 9.62424 11.7639 9.3606 12.246 8.89193C12.728 8.42325 12.9992 7.78781 13 7.125V5.25H11.0714C10.4132 5.25103 9.78075 5.49875 9.30563 5.94162C8.97267 5.35402 8.48376 4.86396 7.88981 4.52247C7.29587 4.18098 6.61861 4.00056 5.92857 4H4V5.875C4.00112 6.86923 4.40786 7.82242 5.13097 8.52544C5.85408 9.22847 6.83451 9.62391 7.85714 9.625H8.5V12.75H4V14.5H20V12.75H9.78571ZM11.0714 6.5H11.7143V7.125C11.7139 7.45642 11.5784 7.77417 11.3373 8.00852C11.0963 8.24287 10.7695 8.37467 10.4286 8.375H9.78571V7.75C9.78604 7.41858 9.9216 7.10082 10.1626 6.86646C10.4037 6.63211 10.7305 6.50031 11.0714 6.5ZM7.85714 8.375C7.1754 8.37424 6.5218 8.1106 6.03973 7.64193C5.55767 7.17325 5.2865 6.53781 5.28571 5.875V5.25H5.92857C6.61032 5.25074 7.26393 5.51438 7.746 5.98306C8.22807 6.45173 8.49923 7.08719 8.5 7.75V8.375H7.85714Z" fill="#A8AFAF"/>
</svg>
