<svg width="24" height="24" viewBox="0 0 24 24" fill="none" xmlns="http://www.w3.org/2000/svg">
<path fill-rule="evenodd" clip-rule="evenodd" d="M3 7C3 6.44772 3.44772 6 4 6H20C20.5523 6 21 6.44772 21 7C21 7.55228 20.5523 8 20 8H4C3.44772 8 3 7.55228 3 7ZM5.99994 12C5.99994 11.4477 6.44765 11 6.99994 11H16.9999C17.5522 11 17.9999 11.4477 17.9999 12C17.9999 12.5523 17.5522 13 16.9999 13H6.99994C6.44765 13 5.99994 12.5523 5.99994 12ZM9.9999 17C9.9999 16.4477 10.4476 16 10.9999 16H12.9999C13.5522 16 13.9999 16.4477 13.9999 17C13.9999 17.5523 13.5522 18 12.9999 18H10.9999C10.4476 18 9.9999 17.5523 9.9999 17Z" fill="#00AA71"/>
</svg>
