<svg width="32" height="32" viewBox="0 0 32 32" fill="none" xmlns="http://www.w3.org/2000/svg">
<g clip-path="url(#clip0_18_496)">
<path d="M25.3333 4H6.65333C5.17333 4 4 5.2 4 6.66667V25.3333C4 26.8 5.17333 28 6.65333 28H25.3333C26.8 28 28 26.8 28 25.3333V6.66667C28 5.2 26.8 4 25.3333 4ZM25.3333 20H21.16C20.5333 20 20.0267 20.4533 19.8533 21.0667C19.3867 22.76 17.8267 24 16 24C14.1733 24 12.6133 22.76 12.1467 21.0667C11.9733 20.4533 11.4667 20 10.84 20H6.65333V8C6.65333 7.26667 7.25333 6.66667 7.98667 6.66667H24C24.7333 6.66667 25.3333 7.26667 25.3333 8V20ZM21.3333 13.3333H18.6667V9.33333H13.3333V13.3333H10.6667L15.5333 18.2C15.8 18.4667 16.2133 18.4667 16.48 18.2L21.3333 13.3333Z" fill="black"/>
</g>
<defs>
<clipPath id="clip0_18_496">
<rect width="32" height="32" fill="white"/>
</clipPath>
</defs>
</svg>
