<svg width="300" height="300" viewBox="0 0 300 300" fill="none" xmlns="http://www.w3.org/2000/svg">
<mask id="mask0_79_1194" style="mask-type:alpha" maskUnits="userSpaceOnUse" x="4" y="12" width="292" height="285">
<mask id="mask1_79_1194" style="mask-type:luminance" maskUnits="userSpaceOnUse" x="0" y="0" width="300" height="300">
<path d="M0 0H300V300H0V0Z" fill="white"/>
</mask>
<g mask="url(#mask1_79_1194)">
<path d="M271.839 244.127C270.774 245.871 269.669 247.581 268.517 249.251C253.186 271.474 228.24 286.312 204.204 292.7C193.675 295.503 182.905 296.833 172.184 296.965C101.868 297.799 77.6363 236.68 55.4093 220.505C33.1823 204.33 -0.855713 176.804 4.95949 120.996C9.37369 78.5631 33.6095 38.5113 76.4207 21.1131C81.1361 19.1908 86.0813 17.5443 91.2485 16.2057C100.861 13.7151 111.248 12.2643 122.403 12.0375C154.444 11.3829 180.22 20.1111 205.109 41.0469C210.895 45.9135 216.633 51.3819 224.286 52.1643C229.848 52.7325 235.186 50.7807 229.507 45.0081C222.833 38.2227 231.071 25.4343 248.217 34.9149C276.852 50.7495 287.946 83.5917 292.71 116.818C298.558 157.602 293.895 208.01 271.839 244.127Z" fill="#5AE4A7"/>
<mask id="mask2_79_1194" style="mask-type:luminance" maskUnits="userSpaceOnUse" x="4" y="12" width="292" height="285">
<path d="M4.30103 12.0036H295.019V296.973H4.30103V12.0036Z" fill="white"/>
</mask>
<g mask="url(#mask2_79_1194)">
<g opacity="0.699997">
<path d="M271.839 244.127C270.774 245.871 269.669 247.581 268.517 249.251C253.186 271.474 228.24 286.312 204.204 292.7C193.675 295.503 182.905 296.833 172.184 296.965C101.868 297.799 77.6363 236.68 55.4093 220.505C33.1823 204.33 -0.855713 176.804 4.95949 120.996C9.37369 78.5631 33.6095 38.5113 76.4207 21.1131C81.1361 19.1908 86.0813 17.5443 91.2485 16.2057C100.861 13.7151 111.248 12.2643 122.403 12.0375C154.444 11.3829 180.22 20.1111 205.109 41.0469C210.895 45.9135 216.633 51.3819 224.286 52.1643C229.848 52.7325 235.186 50.7807 229.507 45.0081C222.833 38.2227 231.071 25.4343 248.217 34.9149C276.852 50.7495 287.946 83.5917 292.71 116.818C298.558 157.602 293.895 208.01 271.839 244.127Z" fill="white"/>
</g>
</g>
</g>
</mask>
<g mask="url(#mask0_79_1194)">
<path d="M241.848 122.711L185.717 139.02C184.155 139.474 182.521 138.575 182.067 137.013L172.018 102.427C171.564 100.865 172.462 99.2305 174.025 98.7769L230.155 82.4677C231.717 82.0141 233.351 82.9123 233.806 84.4741L243.854 119.06C244.309 120.623 243.41 122.257 241.848 122.711Z" fill="#5AE4A7"/>
<path d="M241.848 122.711L185.717 139.02C184.155 139.474 182.521 138.575 182.067 137.013L172.018 102.427C171.564 100.865 172.462 99.2305 174.025 98.7769L230.155 82.4677C231.717 82.0141 233.351 82.9123 233.806 84.4741L243.854 119.06C244.309 120.623 243.41 122.257 241.848 122.711Z" stroke="#1A2E35" stroke-width="1.33333" stroke-miterlimit="10" stroke-linecap="round" stroke-linejoin="round"/>
<path d="M188.553 118.949L184.3 120.184C183.08 120.539 181.803 119.837 181.449 118.617L180.174 114.229C179.819 113.008 180.521 111.732 181.741 111.377L185.994 110.142C187.214 109.787 188.491 110.489 188.845 111.709L190.12 116.097C190.475 117.318 189.773 118.594 188.553 118.949Z" fill="#FDFDFD"/>
<path d="M188.553 118.949L184.3 120.184C183.08 120.539 181.803 119.837 181.449 118.617L180.174 114.229C179.819 113.008 180.521 111.732 181.741 111.377L185.994 110.142C187.214 109.787 188.491 110.489 188.845 111.709L190.12 116.097C190.475 117.318 189.773 118.594 188.553 118.949Z" stroke="#1A2E35" stroke-width="1.33333" stroke-miterlimit="10" stroke-linecap="round" stroke-linejoin="round"/>
<path d="M185.032 119.825L182.552 111.289" stroke="#1A2E35" stroke-width="1.33333" stroke-miterlimit="10" stroke-linecap="round" stroke-linejoin="round"/>
<path d="M187.725 119.043L185.796 112.405L188.794 111.533" stroke="#1A2E35" stroke-width="1.33333" stroke-miterlimit="10" stroke-linecap="round" stroke-linejoin="round"/>
<path d="M180.299 114.319L183.108 113.502" stroke="#1A2E35" stroke-width="1.33333" stroke-miterlimit="10" stroke-linecap="round" stroke-linejoin="round"/>
<path d="M180.843 116.192L183.653 115.376" stroke="#1A2E35" stroke-width="1.33333" stroke-miterlimit="10" stroke-linecap="round" stroke-linejoin="round"/>
<path d="M181.404 118.124L184.214 117.307" stroke="#1A2E35" stroke-width="1.33333" stroke-miterlimit="10" stroke-linecap="round" stroke-linejoin="round"/>
<path d="M186.621 114.45L189.431 113.633" stroke="#1A2E35" stroke-width="1.33333" stroke-miterlimit="10" stroke-linecap="round" stroke-linejoin="round"/>
<path d="M187.199 116.44L189.774 115.692" stroke="#1A2E35" stroke-width="1.33333" stroke-miterlimit="10" stroke-linecap="round" stroke-linejoin="round"/>
<path d="M185.779 128.858C185.919 129.044 186.074 129.113 186.245 129.063C186.418 129.013 186.513 128.871 186.531 128.639C186.549 128.406 186.491 128.061 186.358 127.601C186.307 127.427 186.256 127.272 186.204 127.139L185.733 128.792C185.749 128.816 185.764 128.838 185.779 128.858ZM185.478 126.425C185.307 126.474 185.213 126.615 185.195 126.848C185.177 127.08 185.235 127.427 185.369 127.889C185.41 128.031 185.451 128.16 185.492 128.276L185.956 126.643C185.953 126.638 185.95 126.634 185.947 126.629C185.807 126.443 185.651 126.374 185.478 126.425ZM184.622 128.105C184.433 127.455 184.395 126.937 184.506 126.553C184.618 126.168 184.881 125.916 185.296 125.796C185.712 125.675 186.069 125.746 186.37 126.01C186.67 126.274 186.915 126.732 187.105 127.384C187.294 128.034 187.332 128.552 187.22 128.936C187.108 129.319 186.844 129.571 186.427 129.692C186.013 129.812 185.656 129.74 185.356 129.476C185.055 129.211 184.81 128.754 184.622 128.105Z" fill="#FDFDFD"/>
<path d="M185.779 128.858C185.919 129.044 186.074 129.113 186.245 129.063C186.418 129.013 186.513 128.871 186.531 128.639C186.549 128.406 186.491 128.061 186.358 127.601C186.307 127.427 186.256 127.272 186.204 127.139L185.733 128.792C185.749 128.816 185.764 128.838 185.779 128.858ZM185.478 126.425C185.307 126.474 185.213 126.615 185.195 126.848C185.177 127.08 185.235 127.427 185.369 127.889C185.41 128.031 185.451 128.16 185.492 128.276L185.956 126.643C185.953 126.638 185.95 126.634 185.947 126.629C185.807 126.443 185.651 126.374 185.478 126.425ZM184.622 128.105C184.433 127.455 184.395 126.937 184.506 126.553C184.618 126.168 184.881 125.916 185.296 125.796C185.712 125.675 186.069 125.746 186.37 126.01C186.67 126.274 186.915 126.732 187.105 127.384C187.294 128.034 187.332 128.552 187.22 128.936C187.108 129.319 186.844 129.571 186.427 129.692C186.013 129.812 185.656 129.74 185.356 129.476C185.055 129.211 184.81 128.754 184.622 128.105Z" stroke="#1A2E35" stroke-width="0.666667" stroke-miterlimit="10"/>
<path d="M188.241 128.377L189.071 128.136L188.363 125.698L187.647 126.114L187.452 125.445L188.175 125.032L188.892 124.824L189.794 127.926L190.623 127.684L190.814 128.338L188.432 129.031L188.241 128.377Z" fill="#FDFDFD"/>
<path d="M188.241 128.377L189.071 128.136L188.363 125.698L187.647 126.114L187.452 125.445L188.175 125.032L188.892 124.824L189.794 127.926L190.623 127.684L190.814 128.338L188.432 129.031L188.241 128.377Z" stroke="#1A2E35" stroke-width="0.666667" stroke-miterlimit="10"/>
<path d="M191.982 127.055C192.122 127.242 192.277 127.31 192.448 127.261C192.621 127.211 192.716 127.069 192.734 126.837C192.752 126.604 192.694 126.259 192.561 125.799C192.51 125.624 192.459 125.47 192.407 125.336L191.936 126.99C191.952 127.014 191.967 127.036 191.982 127.055ZM191.681 124.622C191.51 124.672 191.416 124.813 191.398 125.045C191.38 125.278 191.438 125.625 191.572 126.086C191.613 126.229 191.654 126.358 191.696 126.473L192.159 124.841C192.156 124.836 192.153 124.832 192.15 124.827C192.01 124.64 191.854 124.572 191.681 124.622ZM190.825 126.303C190.636 125.653 190.598 125.135 190.709 124.751C190.821 124.366 191.084 124.114 191.499 123.994C191.915 123.872 192.273 123.944 192.573 124.208C192.873 124.471 193.118 124.93 193.308 125.582C193.497 126.232 193.535 126.749 193.423 127.133C193.311 127.517 193.047 127.769 192.63 127.89C192.216 128.01 191.859 127.938 191.559 127.673C191.258 127.409 191.013 126.952 190.825 126.303Z" fill="#FDFDFD"/>
<path d="M191.982 127.055C192.122 127.242 192.277 127.31 192.448 127.261C192.621 127.211 192.716 127.069 192.734 126.837C192.752 126.604 192.694 126.259 192.561 125.799C192.51 125.624 192.459 125.47 192.407 125.336L191.936 126.99C191.952 127.014 191.967 127.036 191.982 127.055ZM191.681 124.622C191.51 124.672 191.416 124.813 191.398 125.045C191.38 125.278 191.438 125.625 191.572 126.086C191.613 126.229 191.654 126.358 191.696 126.473L192.159 124.841C192.156 124.836 192.153 124.832 192.15 124.827C192.01 124.64 191.854 124.572 191.681 124.622ZM190.825 126.303C190.636 125.653 190.598 125.135 190.709 124.751C190.821 124.366 191.084 124.114 191.499 123.994C191.915 123.872 192.273 123.944 192.573 124.208C192.873 124.471 193.118 124.93 193.308 125.582C193.497 126.232 193.535 126.749 193.423 127.133C193.311 127.517 193.047 127.769 192.63 127.89C192.216 128.01 191.859 127.938 191.559 127.673C191.258 127.409 191.013 126.952 190.825 126.303Z" stroke="#1A2E35" stroke-width="0.666667" stroke-miterlimit="10"/>
<path d="M194.444 126.574L195.275 126.333L194.566 123.896L193.85 124.311L193.655 123.642L194.378 123.231L195.095 123.022L195.996 126.123L196.826 125.882L197.016 126.536L194.634 127.228L194.444 126.574Z" fill="#FDFDFD"/>
<path d="M194.444 126.574L195.275 126.333L194.566 123.896L193.85 124.311L193.655 123.642L194.378 123.231L195.095 123.022L195.996 126.123L196.826 125.882L197.016 126.536L194.634 127.228L194.444 126.574Z" stroke="#1A2E35" stroke-width="0.666667" stroke-miterlimit="10"/>
<path d="M198.185 125.253C198.324 125.44 198.48 125.508 198.651 125.458C198.824 125.408 198.919 125.267 198.937 125.035C198.954 124.802 198.897 124.456 198.764 123.997C198.713 123.822 198.662 123.668 198.61 123.534L198.138 125.188C198.155 125.212 198.17 125.234 198.185 125.253ZM197.884 122.82C197.713 122.87 197.619 123.011 197.601 123.243C197.583 123.476 197.641 123.823 197.775 124.284C197.816 124.426 197.857 124.555 197.898 124.67L198.362 123.038C198.359 123.034 198.356 123.029 198.353 123.025C198.213 122.838 198.057 122.77 197.884 122.82ZM197.028 124.501C196.839 123.85 196.8 123.332 196.912 122.948C197.024 122.564 197.287 122.311 197.702 122.191C198.117 122.07 198.475 122.141 198.776 122.405C199.076 122.669 199.321 123.127 199.511 123.779C199.7 124.43 199.738 124.947 199.626 125.331C199.514 125.714 199.25 125.966 198.833 126.088C198.419 126.208 198.062 126.136 197.762 125.871C197.461 125.606 197.216 125.15 197.028 124.501Z" fill="#FDFDFD"/>
<path d="M198.185 125.253C198.324 125.44 198.48 125.508 198.651 125.458C198.824 125.408 198.919 125.267 198.937 125.035C198.954 124.802 198.897 124.456 198.764 123.997C198.713 123.822 198.662 123.668 198.61 123.534L198.138 125.188C198.155 125.212 198.17 125.234 198.185 125.253ZM197.884 122.82C197.713 122.87 197.619 123.011 197.601 123.243C197.583 123.476 197.641 123.823 197.775 124.284C197.816 124.426 197.857 124.555 197.898 124.67L198.362 123.038C198.359 123.034 198.356 123.029 198.353 123.025C198.213 122.838 198.057 122.77 197.884 122.82ZM197.028 124.501C196.839 123.85 196.8 123.332 196.912 122.948C197.024 122.564 197.287 122.311 197.702 122.191C198.117 122.07 198.475 122.141 198.776 122.405C199.076 122.669 199.321 123.127 199.511 123.779C199.7 124.43 199.738 124.947 199.626 125.331C199.514 125.714 199.25 125.966 198.833 126.088C198.419 126.208 198.062 126.136 197.762 125.871C197.461 125.606 197.216 125.15 197.028 124.501Z" stroke="#1A2E35" stroke-width="0.666667" stroke-miterlimit="10"/>
<path d="M200.647 124.772L201.477 124.531L200.769 122.094L200.053 122.509L199.858 121.84L200.581 121.428L201.298 121.22L202.199 124.321L203.029 124.08L203.219 124.734L200.837 125.426L200.647 124.772Z" fill="#FDFDFD"/>
<path d="M200.647 124.772L201.477 124.531L200.769 122.094L200.053 122.509L199.858 121.84L200.581 121.428L201.298 121.22L202.199 124.321L203.029 124.08L203.219 124.734L200.837 125.426L200.647 124.772Z" stroke="#1A2E35" stroke-width="0.666667" stroke-miterlimit="10"/>
<path d="M204.388 123.451C204.527 123.637 204.683 123.706 204.854 123.656C205.027 123.606 205.122 123.465 205.139 123.232C205.157 123 205.1 122.654 204.967 122.194C204.916 122.02 204.865 121.866 204.813 121.732L204.341 123.385C204.358 123.409 204.373 123.432 204.388 123.451ZM204.087 121.018C203.916 121.068 203.822 121.209 203.804 121.441C203.786 121.674 203.844 122.02 203.978 122.481C204.019 122.624 204.06 122.753 204.101 122.868L204.565 121.236C204.562 121.231 204.559 121.227 204.556 121.222C204.416 121.036 204.26 120.967 204.087 121.018ZM203.231 122.698C203.042 122.048 203.003 121.53 203.115 121.146C203.227 120.762 203.49 120.509 203.905 120.389C204.32 120.268 204.678 120.339 204.979 120.603C205.279 120.867 205.524 121.325 205.714 121.977C205.903 122.628 205.941 123.145 205.829 123.529C205.717 123.912 205.453 124.164 205.036 124.285C204.622 124.405 204.265 124.333 203.964 124.069C203.664 123.804 203.419 123.348 203.231 122.698Z" fill="#FDFDFD"/>
<path d="M204.388 123.451C204.527 123.637 204.683 123.706 204.854 123.656C205.027 123.606 205.122 123.465 205.139 123.232C205.157 123 205.1 122.654 204.967 122.194C204.916 122.02 204.865 121.866 204.813 121.732L204.341 123.385C204.358 123.409 204.373 123.432 204.388 123.451ZM204.087 121.018C203.916 121.068 203.822 121.209 203.804 121.441C203.786 121.674 203.844 122.02 203.978 122.481C204.019 122.624 204.06 122.753 204.101 122.868L204.565 121.236C204.562 121.231 204.559 121.227 204.556 121.222C204.416 121.036 204.26 120.967 204.087 121.018ZM203.231 122.698C203.042 122.048 203.003 121.53 203.115 121.146C203.227 120.762 203.49 120.509 203.905 120.389C204.32 120.268 204.678 120.339 204.979 120.603C205.279 120.867 205.524 121.325 205.714 121.977C205.903 122.628 205.941 123.145 205.829 123.529C205.717 123.912 205.453 124.164 205.036 124.285C204.622 124.405 204.265 124.333 203.964 124.069C203.664 123.804 203.419 123.348 203.231 122.698Z" stroke="#1A2E35" stroke-width="0.666667" stroke-miterlimit="10"/>
<path d="M206.85 122.97L207.68 122.729L206.972 120.291L206.255 120.707L206.061 120.038L206.784 119.626L207.501 119.417L208.402 122.519L209.232 122.277L209.422 122.931L207.04 123.624L206.85 122.97Z" fill="#FDFDFD"/>
<path d="M206.85 122.97L207.68 122.729L206.972 120.291L206.255 120.707L206.061 120.038L206.784 119.626L207.501 119.417L208.402 122.519L209.232 122.277L209.422 122.931L207.04 123.624L206.85 122.97Z" stroke="#1A2E35" stroke-width="0.666667" stroke-miterlimit="10"/>
<path d="M210.59 121.648C210.73 121.835 210.886 121.903 211.057 121.854C211.229 121.804 211.325 121.662 211.343 121.43C211.36 121.197 211.303 120.852 211.169 120.392C211.118 120.217 211.067 120.063 211.016 119.929L210.544 121.583C210.56 121.607 210.575 121.629 210.59 121.648ZM210.29 119.215C210.119 119.265 210.025 119.406 210.007 119.638C209.989 119.871 210.047 120.218 210.181 120.679C210.222 120.822 210.263 120.951 210.304 121.066L210.768 119.434C210.765 119.429 210.761 119.425 210.758 119.42C210.619 119.233 210.463 119.165 210.29 119.215ZM209.434 120.896C209.245 120.246 209.206 119.728 209.318 119.344C209.43 118.959 209.693 118.707 210.107 118.587C210.523 118.465 210.881 118.537 211.181 118.801C211.482 119.065 211.727 119.523 211.916 120.175C212.105 120.825 212.144 121.342 212.032 121.726C211.919 122.11 211.655 122.362 211.239 122.483C210.825 122.603 210.468 122.531 210.167 122.266C209.867 122.002 209.622 121.545 209.434 120.896Z" fill="#FDFDFD"/>
<path d="M210.59 121.648C210.73 121.835 210.886 121.903 211.057 121.854C211.229 121.804 211.325 121.662 211.343 121.43C211.36 121.197 211.303 120.852 211.169 120.392C211.118 120.217 211.067 120.063 211.016 119.929L210.544 121.583C210.56 121.607 210.575 121.629 210.59 121.648ZM210.29 119.215C210.119 119.265 210.025 119.406 210.007 119.638C209.989 119.871 210.047 120.218 210.181 120.679C210.222 120.822 210.263 120.951 210.304 121.066L210.768 119.434C210.765 119.429 210.761 119.425 210.758 119.42C210.619 119.233 210.463 119.165 210.29 119.215ZM209.434 120.896C209.245 120.246 209.206 119.728 209.318 119.344C209.43 118.959 209.693 118.707 210.107 118.587C210.523 118.465 210.881 118.537 211.181 118.801C211.482 119.065 211.727 119.523 211.916 120.175C212.105 120.825 212.144 121.342 212.032 121.726C211.919 122.11 211.655 122.362 211.239 122.483C210.825 122.603 210.468 122.531 210.167 122.266C209.867 122.002 209.622 121.545 209.434 120.896Z" stroke="#1A2E35" stroke-width="0.666667" stroke-miterlimit="10"/>
<path d="M213.053 121.168L213.883 120.926L213.175 118.489L212.458 118.904L212.264 118.235L212.987 117.823L213.704 117.615L214.605 120.716L215.435 120.475L215.625 121.129L213.243 121.822L213.053 121.168Z" fill="#FDFDFD"/>
<path d="M213.053 121.168L213.883 120.926L213.175 118.489L212.458 118.904L212.264 118.235L212.987 117.823L213.704 117.615L214.605 120.716L215.435 120.475L215.625 121.129L213.243 121.822L213.053 121.168Z" stroke="#1A2E35" stroke-width="0.666667" stroke-miterlimit="10"/>
<path d="M216.793 119.846C216.933 120.033 217.089 120.101 217.26 120.051C217.432 120.002 217.528 119.86 217.546 119.628C217.563 119.395 217.506 119.049 217.372 118.59C217.321 118.415 217.27 118.261 217.219 118.127L216.747 119.781C216.763 119.805 216.778 119.827 216.793 119.846ZM216.493 117.413C216.322 117.463 216.228 117.604 216.21 117.836C216.192 118.069 216.25 118.416 216.384 118.877C216.425 119.019 216.466 119.148 216.507 119.264L216.971 117.632C216.968 117.627 216.964 117.623 216.961 117.618C216.822 117.431 216.666 117.363 216.493 117.413ZM215.637 119.094C215.448 118.443 215.409 117.926 215.521 117.542C215.633 117.157 215.896 116.904 216.31 116.784C216.726 116.663 217.084 116.735 217.384 116.999C217.685 117.262 217.93 117.72 218.119 118.373C218.308 119.023 218.347 119.54 218.235 119.924C218.122 120.308 217.858 120.56 217.442 120.681C217.028 120.801 216.671 120.729 216.37 120.464C216.07 120.2 215.825 119.743 215.637 119.094Z" fill="#FDFDFD"/>
<path d="M216.793 119.846C216.933 120.033 217.089 120.101 217.26 120.051C217.432 120.002 217.528 119.86 217.546 119.628C217.563 119.395 217.506 119.049 217.372 118.59C217.321 118.415 217.27 118.261 217.219 118.127L216.747 119.781C216.763 119.805 216.778 119.827 216.793 119.846ZM216.493 117.413C216.322 117.463 216.228 117.604 216.21 117.836C216.192 118.069 216.25 118.416 216.384 118.877C216.425 119.019 216.466 119.148 216.507 119.264L216.971 117.632C216.968 117.627 216.964 117.623 216.961 117.618C216.822 117.431 216.666 117.363 216.493 117.413ZM215.637 119.094C215.448 118.443 215.409 117.926 215.521 117.542C215.633 117.157 215.896 116.904 216.31 116.784C216.726 116.663 217.084 116.735 217.384 116.999C217.685 117.262 217.93 117.72 218.119 118.373C218.308 119.023 218.347 119.54 218.235 119.924C218.122 120.308 217.858 120.56 217.442 120.681C217.028 120.801 216.671 120.729 216.37 120.464C216.07 120.2 215.825 119.743 215.637 119.094Z" stroke="#1A2E35" stroke-width="0.666667" stroke-miterlimit="10"/>
<path d="M219.256 119.365L220.086 119.124L219.378 116.687L218.661 117.102L218.467 116.433L219.19 116.021L219.907 115.813L220.808 118.915L221.638 118.673L221.828 119.327L219.446 120.019L219.256 119.365Z" fill="#FDFDFD"/>
<path d="M219.256 119.365L220.086 119.124L219.378 116.687L218.661 117.102L218.467 116.433L219.19 116.021L219.907 115.813L220.808 118.915L221.638 118.673L221.828 119.327L219.446 120.019L219.256 119.365Z" stroke="#1A2E35" stroke-width="0.666667" stroke-miterlimit="10"/>
<path d="M222.996 118.044C223.136 118.231 223.291 118.299 223.462 118.249C223.635 118.199 223.731 118.058 223.749 117.826C223.766 117.593 223.708 117.247 223.575 116.788C223.524 116.613 223.473 116.459 223.422 116.325L222.95 117.979C222.966 118.003 222.981 118.025 222.996 118.044ZM222.696 115.611C222.525 115.661 222.43 115.802 222.412 116.034C222.394 116.267 222.453 116.614 222.586 117.074C222.628 117.217 222.669 117.346 222.709 117.461L223.174 115.829C223.171 115.825 223.167 115.82 223.164 115.816C223.024 115.629 222.868 115.561 222.696 115.611ZM221.839 117.292C221.65 116.641 221.612 116.123 221.724 115.739C221.836 115.355 222.099 115.102 222.513 114.982C222.929 114.861 223.287 114.932 223.587 115.196C223.888 115.46 224.133 115.918 224.322 116.57C224.511 117.221 224.55 117.738 224.437 118.122C224.325 118.505 224.061 118.757 223.645 118.879C223.231 118.999 222.874 118.927 222.573 118.662C222.273 118.397 222.028 117.941 221.839 117.292Z" fill="#FDFDFD"/>
<path d="M222.996 118.044C223.136 118.231 223.291 118.299 223.462 118.249C223.635 118.199 223.731 118.058 223.749 117.826C223.766 117.593 223.708 117.247 223.575 116.788C223.524 116.613 223.473 116.459 223.422 116.325L222.95 117.979C222.966 118.003 222.981 118.025 222.996 118.044ZM222.696 115.611C222.525 115.661 222.43 115.802 222.412 116.034C222.394 116.267 222.453 116.614 222.586 117.074C222.628 117.217 222.669 117.346 222.709 117.461L223.174 115.829C223.171 115.825 223.167 115.82 223.164 115.816C223.024 115.629 222.868 115.561 222.696 115.611ZM221.839 117.292C221.65 116.641 221.612 116.123 221.724 115.739C221.836 115.355 222.099 115.102 222.513 114.982C222.929 114.861 223.287 114.932 223.587 115.196C223.888 115.46 224.133 115.918 224.322 116.57C224.511 117.221 224.55 117.738 224.437 118.122C224.325 118.505 224.061 118.757 223.645 118.879C223.231 118.999 222.874 118.927 222.573 118.662C222.273 118.397 222.028 117.941 221.839 117.292Z" stroke="#1A2E35" stroke-width="0.666667" stroke-miterlimit="10"/>
<path d="M225.459 117.563L226.289 117.322L225.581 114.885L224.864 115.3L224.67 114.631L225.393 114.219L226.11 114.01L227.011 117.112L227.841 116.871L228.031 117.525L225.649 118.217L225.459 117.563Z" fill="#FDFDFD"/>
<path d="M225.459 117.563L226.289 117.322L225.581 114.885L224.864 115.3L224.67 114.631L225.393 114.219L226.11 114.01L227.011 117.112L227.841 116.871L228.031 117.525L225.649 118.217L225.459 117.563Z" stroke="#1A2E35" stroke-width="0.666667" stroke-miterlimit="10"/>
<path d="M229.199 116.242C229.339 116.428 229.494 116.497 229.665 116.447C229.838 116.397 229.934 116.255 229.952 116.023C229.969 115.79 229.911 115.445 229.778 114.985C229.727 114.811 229.676 114.656 229.625 114.522L229.153 116.176C229.169 116.2 229.184 116.222 229.199 116.242ZM228.899 113.809C228.728 113.858 228.633 113.999 228.615 114.232C228.597 114.464 228.656 114.811 228.789 115.272C228.831 115.415 228.872 115.544 228.912 115.659L229.377 114.027C229.374 114.022 229.37 114.018 229.367 114.013C229.227 113.827 229.071 113.758 228.899 113.809ZM228.042 115.489C227.853 114.839 227.815 114.321 227.927 113.937C228.039 113.552 228.302 113.3 228.716 113.18C229.132 113.059 229.49 113.13 229.79 113.394C230.091 113.657 230.336 114.116 230.525 114.768C230.714 115.418 230.753 115.936 230.64 116.319C230.528 116.703 230.264 116.955 229.848 117.076C229.434 117.196 229.077 117.124 228.776 116.86C228.476 116.595 228.231 116.138 228.042 115.489Z" fill="#FDFDFD"/>
<path d="M229.199 116.242C229.339 116.428 229.494 116.497 229.665 116.447C229.838 116.397 229.934 116.255 229.952 116.023C229.969 115.79 229.911 115.445 229.778 114.985C229.727 114.811 229.676 114.656 229.625 114.522L229.153 116.176C229.169 116.2 229.184 116.222 229.199 116.242ZM228.899 113.809C228.728 113.858 228.633 113.999 228.615 114.232C228.597 114.464 228.656 114.811 228.789 115.272C228.831 115.415 228.872 115.544 228.912 115.659L229.377 114.027C229.374 114.022 229.37 114.018 229.367 114.013C229.227 113.827 229.071 113.758 228.899 113.809ZM228.042 115.489C227.853 114.839 227.815 114.321 227.927 113.937C228.039 113.552 228.302 113.3 228.716 113.18C229.132 113.059 229.49 113.13 229.79 113.394C230.091 113.657 230.336 114.116 230.525 114.768C230.714 115.418 230.753 115.936 230.64 116.319C230.528 116.703 230.264 116.955 229.848 117.076C229.434 117.196 229.077 117.124 228.776 116.86C228.476 116.595 228.231 116.138 228.042 115.489Z" stroke="#1A2E35" stroke-width="0.666667" stroke-miterlimit="10"/>
<path d="M231.662 115.761L232.491 115.519L231.783 113.082L231.067 113.497L230.873 112.828L231.596 112.417L232.313 112.208L233.214 115.31L234.044 115.068L234.234 115.722L231.852 116.415L231.662 115.761Z" fill="#FDFDFD"/>
<path d="M231.662 115.761L232.491 115.519L231.783 113.082L231.067 113.497L230.873 112.828L231.596 112.417L232.313 112.208L233.214 115.31L234.044 115.068L234.234 115.722L231.852 116.415L231.662 115.761Z" stroke="#1A2E35" stroke-width="0.666667" stroke-miterlimit="10"/>
<path d="M234.763 114.86L235.593 114.618L234.885 112.181L234.168 112.596L233.974 111.927L234.697 111.516L235.414 111.307L236.315 114.408L237.145 114.167L237.335 114.821L234.953 115.514L234.763 114.86Z" fill="#FDFDFD"/>
<path d="M234.763 114.86L235.593 114.618L234.885 112.181L234.168 112.596L233.974 111.927L234.697 111.516L235.414 111.307L236.315 114.408L237.145 114.167L237.335 114.821L234.953 115.514L234.763 114.86Z" stroke="#1A2E35" stroke-width="0.666667" stroke-miterlimit="10"/>
<path d="M182.531 153.083C178.295 152.715 172.403 157.87 172.403 157.87L123.972 158.608C123.972 158.608 124.708 152.715 122.498 151.241C120.289 149.768 118.815 152.53 116.053 154.556C113.291 156.582 102.426 163.763 102.426 163.763C102.426 163.763 85.6691 174.628 82.1699 177.207C78.6715 179.784 69.8321 195.253 69.8321 195.253C69.8321 195.253 63.9391 206.117 62.2818 211.826C60.6244 217.535 58.9671 222.875 58.9671 222.875L55.8 226.364V271.581H75.693L94.324 257.679C94.324 257.679 99.296 256.022 103.531 254.18C107.766 252.339 117.158 247.367 126.734 242.027C136.31 236.686 145.885 229.873 145.885 229.873C145.885 229.873 156.566 218.456 161.17 213.852C165.774 209.248 170.193 199.857 171.666 194.7C173.139 189.544 175.349 175.18 175.349 175.18C175.349 175.18 176.27 173.523 178.663 170.025C181.058 166.525 184.373 163.58 186.03 159.344C187.687 155.108 186.766 153.451 182.531 153.083Z" fill="#FDFDFD"/>
<path d="M182.531 153.083C178.295 152.715 172.403 157.87 172.403 157.87L123.972 158.608C123.972 158.608 124.708 152.715 122.498 151.241C120.289 149.768 118.815 152.53 116.053 154.556C113.291 156.582 102.426 163.763 102.426 163.763C102.426 163.763 85.669 174.628 82.1699 177.207C78.6715 179.784 69.8321 195.253 69.8321 195.253C69.8321 195.253 63.9391 206.117 62.2818 211.826C60.6244 217.535 58.9671 222.875 58.9671 222.875L55.8 226.364V271.581H75.693L94.324 257.679C94.324 257.679 99.296 256.022 103.531 254.18C107.766 252.339 117.158 247.367 126.734 242.027C136.31 236.686 145.885 229.873 145.885 229.873C145.885 229.873 156.566 218.456 161.17 213.852C165.774 209.248 170.193 199.857 171.666 194.7C173.139 189.544 175.349 175.18 175.349 175.18C175.349 175.18 176.27 173.523 178.663 170.025C181.058 166.525 184.373 163.58 186.03 159.344C187.687 155.108 186.766 153.451 182.531 153.083Z" stroke="#1A2E35" stroke-width="1.33333" stroke-miterlimit="10" stroke-linecap="round" stroke-linejoin="round"/>
<path d="M174.773 156.062C173.358 157.036 172.403 157.871 172.403 157.871L123.971 158.608C123.971 158.608 124.03 158.141 124.065 157.438C122.575 161.795 119.018 171.17 115.607 172.437C111.144 174.095 108.211 178.686 108.211 178.686L102.799 183.046C102.799 183.046 106.043 183.66 107.956 183.787C109.869 183.915 112.547 185.445 117.266 186.338C121.984 187.23 140.348 195.392 140.348 195.392C140.348 195.392 145.449 199.218 146.597 204.446C147.744 209.675 145.832 213.883 145.832 213.883L168.384 202.912C169.87 199.871 171.038 196.9 171.666 194.7C172.032 193.42 172.443 191.571 172.855 189.516L172.484 186.465C172.484 186.465 169.934 174.606 170.188 169.249C170.372 165.39 173.205 159.213 174.773 156.062Z" fill="#1A2E35"/>
<path d="M174.773 156.062C173.358 157.036 172.403 157.871 172.403 157.871L123.971 158.608C123.971 158.608 124.03 158.141 124.065 157.438C122.575 161.795 119.018 171.17 115.607 172.437C111.144 174.095 108.211 178.686 108.211 178.686L102.799 183.046C102.799 183.046 106.043 183.66 107.956 183.787C109.869 183.915 112.547 185.445 117.266 186.338C121.984 187.23 140.348 195.392 140.348 195.392C140.348 195.392 145.449 199.218 146.597 204.446C147.744 209.675 145.832 213.883 145.832 213.883L168.384 202.912C169.87 199.871 171.038 196.9 171.666 194.7C172.032 193.42 172.443 191.571 172.855 189.516L172.484 186.465C172.484 186.465 169.934 174.606 170.188 169.249C170.372 165.39 173.205 159.213 174.773 156.062Z" stroke="#1A2E35" stroke-width="1.33333" stroke-miterlimit="10" stroke-linecap="round" stroke-linejoin="round"/>
<path d="M165.523 209.276C165.523 209.276 173.886 196.098 175.28 192.296C176.674 188.495 175.786 184.567 175.28 181.526C174.773 178.485 175.913 174.049 174.393 172.656C172.872 171.262 168.437 171.262 166.663 174.683C164.889 178.105 165.523 181.399 166.03 184.567C166.536 187.735 166.79 189.382 166.79 189.382C166.79 189.382 163.368 193.057 163.368 193.437" fill="#FDFDFD"/>
<path d="M165.523 209.276C165.523 209.276 173.886 196.098 175.28 192.296C176.674 188.495 175.786 184.567 175.28 181.526C174.773 178.485 175.913 174.049 174.393 172.656C172.872 171.262 168.437 171.262 166.663 174.683C164.889 178.105 165.523 181.399 166.03 184.567C166.536 187.735 166.79 189.382 166.79 189.382C166.79 189.382 163.368 193.057 163.368 193.437" stroke="#1A2E35" stroke-width="1.33333" stroke-miterlimit="10" stroke-linecap="round" stroke-linejoin="round"/>
<path d="M146.642 228.41C146.642 228.41 161.088 216.246 162.989 212.951C164.889 209.657 168.184 203.448 168.31 199.646C168.437 195.844 165.903 191.282 165.396 189.129C164.889 186.974 161.468 186.848 159.314 189.382C157.16 191.917 158.047 196.858 158.173 198.125C158.3 199.392 158.427 200.66 158.427 200.66C158.427 200.66 155.639 203.321 154.879 204.968C154.119 206.615 153.358 208.262 153.358 208.262C153.358 208.262 149.303 210.67 147.656 211.81C146.009 212.951 144.361 215.612 144.361 215.612" fill="#FDFDFD"/>
<path d="M146.642 228.41C146.642 228.41 161.088 216.246 162.989 212.951C164.889 209.657 168.184 203.448 168.31 199.646C168.437 195.844 165.903 191.282 165.396 189.129C164.889 186.974 161.468 186.848 159.314 189.382C157.16 191.917 158.047 196.858 158.173 198.125C158.3 199.392 158.427 200.66 158.427 200.66C158.427 200.66 155.639 203.321 154.879 204.968C154.119 206.615 153.358 208.262 153.358 208.262C153.358 208.262 149.303 210.67 147.656 211.81C146.009 212.951 144.361 215.612 144.361 215.612" stroke="#1A2E35" stroke-width="1.33333" stroke-miterlimit="10" stroke-linecap="round" stroke-linejoin="round"/>
<path d="M159.44 201.8C159.44 201.8 160.835 205.095 164.256 205.601" stroke="#1A2E35" stroke-width="1.33333" stroke-miterlimit="10" stroke-linecap="round" stroke-linejoin="round"/>
<path d="M153.992 209.149C153.992 209.149 152.597 213.585 158.427 215.105" stroke="#1A2E35" stroke-width="1.33333" stroke-miterlimit="10" stroke-linecap="round" stroke-linejoin="round"/>
<path d="M167.677 190.016C167.677 190.016 167.424 193.944 172.999 193.183" stroke="#1A2E35" stroke-width="1.33333" stroke-miterlimit="10" stroke-linecap="round" stroke-linejoin="round"/>
<path d="M142.461 199.773C142.461 199.773 144.615 202.94 144.868 207.376" stroke="#1A2E35" stroke-width="1.33333" stroke-miterlimit="10" stroke-linecap="round" stroke-linejoin="round"/>
<path d="M113.063 173.67C113.063 173.67 108.248 178.358 107.361 179.372C106.474 180.385 102.799 183.046 102.799 183.046C102.799 183.046 101.659 186.214 100.518 188.115" stroke="#1A2E35" stroke-width="1.33333" stroke-miterlimit="10" stroke-linecap="round" stroke-linejoin="round"/>
<path d="M110.149 191.663C110.149 191.663 109.388 202.434 102.926 210.036" stroke="#1A2E35" stroke-width="1.33333" stroke-miterlimit="10" stroke-linecap="round" stroke-linejoin="round"/>
<path d="M124.996 195.609C124.996 195.609 120.458 202.604 125.374 212.814C130.29 223.024 132.181 229.452 132.181 229.452" stroke="#1A2E35" stroke-width="1.33333" stroke-miterlimit="10" stroke-linecap="round" stroke-linejoin="round"/>
<path d="M151.681 102.959L109.339 180.641C107.256 184.463 109.399 189.218 113.643 190.189L147.663 197.969C150.618 198.644 153.652 197.21 155.006 194.497L196.007 112.33C197.263 109.813 195.697 106.802 192.915 106.386L155.931 100.846C154.211 100.588 152.514 101.432 151.681 102.959Z" fill="#FDFDFD"/>
<path d="M151.681 102.959L109.339 180.641C107.256 184.463 109.399 189.218 113.643 190.189L147.663 197.969C150.618 198.644 153.652 197.21 155.006 194.497L196.007 112.33C197.263 109.813 195.697 106.802 192.915 106.386L155.931 100.846C154.211 100.588 152.514 101.432 151.681 102.959Z" stroke="#1A2E35" stroke-width="1.33333" stroke-miterlimit="10" stroke-linecap="round" stroke-linejoin="round"/>
<path d="M150.596 108.574L112.989 177.782L156.918 187.828L192.214 116.171L150.596 108.574Z" fill="#5AE4A7"/>
<path d="M150.596 108.574L112.989 177.782L156.918 187.828L192.214 116.171L150.596 108.574Z" stroke="#1A2E35" stroke-width="1.33333" stroke-miterlimit="10" stroke-linecap="round" stroke-linejoin="round"/>
<path d="M197.09 110.802L197.09 110.8L197.084 110.787C197.062 110.746 197.035 110.708 197.013 110.667L196.32 109.483C196.549 110.395 196.472 111.396 196.007 112.33L155.005 194.497C153.652 197.21 150.618 198.644 147.663 197.968L113.643 190.189C111.445 189.686 109.818 188.164 109.042 186.286L109.003 186.275C109.003 186.275 109.262 189.315 112.496 191.643C112.496 191.643 112.92 192.008 113.761 192.08C114.077 192.207 114.403 192.319 114.748 192.399L148.767 200.178C151.723 200.854 154.757 199.42 156.11 196.707L197.111 114.54C197.736 113.289 197.662 111.917 197.09 110.802Z" fill="#A8AFAF"/>
<path d="M197.09 110.802L197.09 110.8L197.084 110.787C197.062 110.746 197.035 110.708 197.013 110.667L196.32 109.483C196.549 110.395 196.472 111.396 196.007 112.33L155.005 194.497C153.652 197.21 150.618 198.644 147.663 197.968L113.643 190.189C111.445 189.686 109.818 188.164 109.042 186.286L109.003 186.275C109.003 186.275 109.262 189.315 112.496 191.643C112.496 191.643 112.92 192.008 113.761 192.08C114.077 192.207 114.403 192.319 114.748 192.399L148.767 200.178C151.723 200.854 154.757 199.42 156.11 196.707L197.111 114.54C197.736 113.289 197.662 111.917 197.09 110.802Z" stroke="#1A2E35" stroke-width="1.33333" stroke-miterlimit="10" stroke-linecap="round" stroke-linejoin="round"/>
<path d="M177.238 135.619C177.175 135.712 177.114 135.806 177.048 135.897C176.015 137.339 174.034 137.547 173.459 136.263C172.907 135.029 172.239 133.884 171.403 132.86C169.845 130.949 167.871 129.524 165.487 128.58C163.832 127.925 162.052 127.533 160.142 127.421C155.395 127.145 150.657 128.407 145.933 131.202C145.492 131.463 145.053 131.645 144.593 131.664C143.691 131.701 143.026 131.133 142.966 130.274C142.906 129.409 143.453 128.463 144.33 127.927C145.518 127.201 146.734 126.559 147.976 125.993C151.106 124.565 154.249 123.693 157.403 123.367C160.26 123.072 162.958 123.255 165.503 123.902C169.182 124.838 172.193 126.647 174.549 129.308C175.73 130.643 176.672 132.159 177.396 133.836C177.554 134.203 177.575 134.612 177.452 135.064C177.443 135.098 177.441 135.13 177.436 135.164C177.37 135.316 177.304 135.467 177.238 135.619Z" fill="#1A2E35"/>
<path d="M152.12 150.352C151.916 150.233 151.688 150.141 151.513 149.992C150.797 149.385 150.753 148.231 151.388 147.222C152.025 146.208 153.176 145.569 154.207 145.656C155.433 145.759 156.112 146.856 155.718 148.1C155.292 149.446 153.985 150.448 152.686 150.427C152.659 150.427 152.629 150.434 152.601 150.438C152.44 150.41 152.28 150.381 152.12 150.352Z" fill="#1A2E35"/>
<path d="M160.824 130.997C165.336 131.878 168.505 134.279 170.279 138.257C170.581 138.932 170.368 139.792 169.745 140.478C169.131 141.154 168.246 141.492 167.508 141.323C167.044 141.217 166.726 140.946 166.544 140.529C166.094 139.5 165.499 138.583 164.743 137.786C163.586 136.567 162.163 135.692 160.459 135.184C157.55 134.315 154.421 134.527 151.073 135.83C150.103 136.208 149.16 136.684 148.24 137.239C147.733 137.544 147.229 137.671 146.734 137.596C145.985 137.483 145.513 136.899 145.535 136.128C145.556 135.354 146.065 134.546 146.836 134.078C147.97 133.387 149.136 132.798 150.333 132.312C152.983 131.237 155.598 130.714 158.177 130.75C159.084 130.764 159.963 130.85 160.824 130.997Z" fill="#1A2E35"/>
<path d="M163.52 143.784C163.103 144.636 162.491 145.189 161.639 145.385C160.791 145.58 160.174 145.332 159.859 144.667C159.518 143.945 159.079 143.312 158.463 142.819C156.527 141.27 153.483 141.307 150.745 142.941C149.77 143.523 148.791 143.436 148.304 142.834C147.631 142.002 148.106 140.541 149.298 139.821C151.31 138.604 153.374 137.898 155.46 137.821C159.237 137.68 161.903 139.105 163.428 142.095C163.613 142.459 163.744 142.844 163.644 143.322C163.609 143.489 163.554 143.658 163.52 143.784Z" fill="#1A2E35"/>
</g>
</svg>
