<svg width="24" height="24" viewBox="0 0 24 24" fill="none" xmlns="http://www.w3.org/2000/svg">
<g clip-path="url(#clip0_24_2627)">
<path d="M4.77001 15.26L7.31 14.97C7.92 14.9 8.52 15.11 8.95 15.54L10.79 17.38C13.62 15.94 15.94 13.63 17.38 10.79L15.53 8.94C15.1 8.51 14.89 7.91 14.96 7.3L15.25 4.78C15.37 3.77 16.22 3.01 17.24 3.01H18.97C20.1 3.01 21.04 3.95 20.97 5.08C20.44 13.62 13.61 20.44 5.08 20.97C3.95 21.04 3.01001 20.1 3.01001 18.97V17.24C3.00001 16.23 3.76001 15.38 4.77001 15.26Z" fill="black"/>
</g>
<defs>
<clipPath id="clip0_24_2627">
<rect width="24" height="24" fill="white" transform="matrix(-1 0 0 1 24 0)"/>
</clipPath>
</defs>
</svg>
