<svg width="24" height="24" viewBox="0 0 24 24" fill="none" xmlns="http://www.w3.org/2000/svg">
<path d="M11.5 12.9141C12.3653 12.9141 13.2112 12.6575 13.9306 12.1767C14.6501 11.696 15.2108 11.0127 15.542 10.2133C15.8731 9.41388 15.9597 8.53421 15.7909 7.68554C15.6221 6.83688 15.2054 6.05733 14.5936 5.44547C13.9817 4.83362 13.2022 4.41694 12.3535 4.24813C11.5049 4.07932 10.6252 4.16596 9.82576 4.49709C9.02633 4.82822 8.34305 5.38898 7.86232 6.10844C7.38159 6.82791 7.125 7.67377 7.125 8.53906C7.125 9.69939 7.58594 10.8122 8.40641 11.6327C9.22688 12.4531 10.3397 12.9141 11.5 12.9141ZM11.5 5.41406C12.1181 5.41406 12.7223 5.59734 13.2362 5.94072C13.7501 6.2841 14.1506 6.77216 14.3871 7.34318C14.6236 7.9142 14.6855 8.54253 14.565 9.14872C14.4444 9.75491 14.1467 10.3117 13.7097 10.7488C13.2727 11.1858 12.7158 11.4834 12.1097 11.604C11.5035 11.7246 10.8751 11.6627 10.3041 11.4262C9.7331 11.1897 9.24504 10.7891 8.90166 10.2752C8.55828 9.76132 8.375 9.15713 8.375 8.53906C8.375 7.71026 8.70424 6.91541 9.29029 6.32936C9.87634 5.7433 10.6712 5.41406 11.5 5.41406Z" fill="#A8AFAF"/>
<path d="M12.125 14.1641H10.875C9.05164 14.1641 7.30295 14.8884 6.01364 16.1777C4.72433 17.467 4 19.2157 4 21.0391C4 21.2048 4.06585 21.3638 4.18306 21.481C4.30027 21.5982 4.45924 21.6641 4.625 21.6641H18.375C18.5408 21.6641 18.6997 21.5982 18.8169 21.481C18.9342 21.3638 19 21.2048 19 21.0391C19 19.2157 18.2757 17.467 16.9864 16.1777C15.697 14.8884 13.9484 14.1641 12.125 14.1641ZM5.2875 20.4141C5.44118 19.0395 6.09594 17.7697 7.12667 16.8473C8.1574 15.925 9.49184 15.4147 10.875 15.4141H12.125C13.5082 15.4147 14.8426 15.925 15.8733 16.8473C16.9041 17.7697 17.5588 19.0395 17.7125 20.4141H5.2875Z" fill="#A8AFAF"/>
</svg>
