<svg width="24" height="24" viewBox="0 0 24 24" fill="none" xmlns="http://www.w3.org/2000/svg">
<path d="M11.5 4C7.37713 4 4 7.42909 4 11.6154V15.7692C4 16.6644 4.57528 17.427 5.36364 17.7163V17.8462C5.36364 19.7473 6.90039 21.3077 8.77273 21.3077H9.64631C9.88335 21.7215 10.3148 22 10.8182 22H12.1818C12.9329 22 13.5455 21.378 13.5455 20.6154C13.5455 19.8528 12.9329 19.2308 12.1818 19.2308H10.8182C10.3148 19.2308 9.88335 19.5093 9.64631 19.9231H8.77273C7.64347 19.9231 6.72727 18.9928 6.72727 17.8462H8.09091V11.6154H5.36364C5.36364 8.1863 8.12287 5.38462 11.5 5.38462C14.8771 5.38462 17.6364 8.1863 17.6364 11.6154H14.9091V17.8462H16.9545C18.0758 17.8462 19 16.9078 19 15.7692V11.6154C19 7.42909 15.6229 4 11.5 4ZM5.36364 13H6.72727V16.4615H6.04545C5.66726 16.4615 5.36364 16.1532 5.36364 15.7692V13ZM16.2727 13H17.6364V15.7692C17.6364 16.1532 17.3327 16.4615 16.9545 16.4615H16.2727V13Z" fill="#A8AFAF"/>
</svg>
