<svg width="24" height="24" viewBox="0 0 24 24" fill="none" xmlns="http://www.w3.org/2000/svg">
<path d="M5.25 4.75V10.1875C4.23926 10.416 3.31348 10.8496 2.53125 11.4766L3.46875 12.6484C4.36816 11.9277 5.50488 11.5 6.75 11.5C9.65918 11.5 12 13.8408 12 16.75H15.4219C15.1611 17.1953 15 17.6992 15 18.25C15 19.8994 16.3506 21.25 18 21.25C19.6494 21.25 21 19.8994 21 18.25C21 17.4795 20.6865 16.791 20.2031 16.2578L21.7031 12.5312L21.75 12.3906V10.75H18V8.5C18 8.0752 18.3252 7.75 18.75 7.75V6.25C17.5166 6.25 16.5 7.2666 16.5 8.5V10.75H14.0156L11.9531 5.24219L11.7656 4.75H5.25ZM6.75 6.25H10.7344L12.7969 11.7578L12.9844 12.25H20.1797L18.9844 15.25H13.3125C12.624 12.2529 9.95215 10 6.75 10V6.25ZM6.75 12.25C4.27441 12.25 2.25 14.2744 2.25 16.75C2.25 19.2256 4.27441 21.25 6.75 21.25C9.22559 21.25 11.25 19.2256 11.25 16.75C11.25 14.2744 9.22559 12.25 6.75 12.25ZM6.75 13.75C8.41699 13.75 9.75 15.083 9.75 16.75C9.75 18.417 8.41699 19.75 6.75 19.75C5.08301 19.75 3.75 18.417 3.75 16.75C3.75 15.083 5.08301 13.75 6.75 13.75ZM6.75 15.25C5.9209 15.25 5.25 15.9209 5.25 16.75C5.25 17.5791 5.9209 18.25 6.75 18.25C7.5791 18.25 8.25 17.5791 8.25 16.75C8.25 15.9209 7.5791 15.25 6.75 15.25ZM18 16.75C18.8379 16.75 19.5 17.4121 19.5 18.25C19.5 19.0879 18.8379 19.75 18 19.75C17.1621 19.75 16.5 19.0879 16.5 18.25C16.5 17.4121 17.1621 16.75 18 16.75Z" fill="#A8AFAF"/>
</svg>
