<svg width="24" height="24" viewBox="0 0 24 24" fill="none" xmlns="http://www.w3.org/2000/svg">
<path fill-rule="evenodd" clip-rule="evenodd" d="M18.9334 13.5364H16.2667C15.9723 13.5364 15.7334 13.7753 15.7334 14.0697V16.203C15.7334 16.498 15.9723 16.7364 16.2667 16.7364H18.9334V19.4031C18.9334 19.698 18.6944 19.9364 18.4 19.9364H5.6C5.3056 19.9364 5.06667 19.698 5.06667 19.4031V9.2697H18.4C18.6944 9.2697 18.9334 9.5081 18.9334 9.80304V13.5364ZM18.9334 15.1364V15.6697H16.8V15.1364V14.603H18.9334V15.1364ZM17.8667 5.00303V8.20303H7.46667L17.8667 5.00303ZM18.9334 8.20303V4.46969C18.9334 4.17476 18.8075 4.01155 18.5334 3.90329C18.3222 3.81955 18.1168 3.86969 17.8667 3.93636L4 8.20303V19.9364C4 20.5252 4.47787 21.0031 5.06667 21.0031H18.9334C19.5222 21.0031 20 20.5252 20 19.9364V9.2697C20 8.6809 19.5222 8.20303 18.9334 8.20303Z" fill="#A8AFAF"/>
</svg>
